<svg width="16" height="16" viewBox="0 0 16 16" fill="none" xmlns="http://www.w3.org/2000/svg">
<g clip-path="url(#clip0_2292_3651)">
<path d="M5.67188 5.33214H8.8345V6.77205C8.87823 6.74965 8.90009 6.74548 8.90738 6.7335C9.61279 5.59678 10.668 5.1024 11.9706 5.07218C12.6994 5.05551 13.4121 5.1472 14.079 5.46655C14.9432 5.88018 15.4273 6.60014 15.696 7.49201C15.912 8.20936 15.9864 8.94859 15.9917 9.69147C16.0057 11.7497 16 13.8086 16.0021 15.8668C16.0021 15.8981 15.9979 15.9299 15.9948 15.9747H12.6838C12.6838 15.9054 12.6838 15.8304 12.6838 15.7559C12.6833 14.0102 12.6885 12.2644 12.677 10.5187C12.6744 10.1233 12.6432 9.72272 12.5719 9.33461C12.3704 8.23853 11.6587 7.8697 10.6441 7.989C9.71743 8.09787 9.20724 8.63966 9.062 9.64302C9.00942 10.0087 8.98547 10.3817 8.98391 10.7521C8.97558 12.4197 8.98026 14.0873 8.98026 15.7548C8.98026 15.8324 8.98026 15.9101 8.98026 16.0018H5.67188V5.33214Z" fill="#B6B6B6"/>
<path d="M0.28125 5.33594H3.57298V16.0019H0.28125V5.33594Z" fill="#B6B6B6"/>
<path d="M3.83784 1.91923C3.84148 2.98145 2.98094 3.85874 1.93141 3.86343C0.876686 3.86811 -0.00155971 2.98458 2.0798e-06 1.92028C0.00156387 0.872641 0.86263 0.00733926 1.91059 4.59331e-05C2.96844 -0.0072474 3.83471 0.854928 3.83784 1.91871V1.91923Z" fill="#B6B6B6"/>
</g>
<defs>
<clipPath id="clip0_2292_3651">
<rect width="16" height="16" fill="white"/>
</clipPath>
</defs>
</svg>
