<svg width="16" height="16" viewBox="0 0 16 16" fill="none" xmlns="http://www.w3.org/2000/svg">
<path d="M0.00836755 16.0001C0.387222 15.5641 0.763583 15.126 1.14511 14.6923C2.80918 12.8013 4.47468 10.9116 6.13947 9.0212C6.174 8.98189 6.20641 8.94085 6.24575 8.89355C4.16722 5.93845 2.09011 2.98526 0 0.013817C0.0598191 0.00946918 0.0991643 0.00407793 0.138332 0.00407793C1.63612 0.00373011 3.13391 0.0051214 4.63153 0.000947533C4.73799 0.000599711 4.79158 0.0395558 4.84784 0.119729C6.16101 1.99101 7.47685 3.86038 8.79233 5.7301C8.82491 5.77636 8.8591 5.82123 8.90289 5.88088C9.17582 5.57184 9.43931 5.27393 9.70208 4.9755C11.1166 3.36926 12.5323 1.76388 13.9425 0.154163C14.0429 0.0395558 14.1431 -0.00374807 14.2948 0.000251889C14.6815 0.0103387 15.0687 0.0035562 15.4935 0.0035562C13.4913 2.27727 11.5129 4.5242 9.53117 6.77444C9.56535 6.8254 9.59348 6.86887 9.62322 6.91131C11.7196 9.89214 13.8159 12.8728 15.9119 15.854C15.9445 15.9004 15.9706 15.9512 15.9998 16.0001H11.2342C11.2155 15.9689 11.1988 15.9364 11.178 15.9069C9.77009 13.9043 8.36185 11.9019 6.95325 9.8998C6.93011 9.86693 6.90162 9.83788 6.86958 9.79997C6.81991 9.85493 6.77718 9.90101 6.7357 9.94814C5.59949 11.2382 4.46275 12.5279 3.32744 13.8189C2.68883 14.545 2.05254 15.273 1.41536 16.0003H0.00836755V16.0001ZM1.92276 1.04041C1.96887 1.11085 1.99789 1.1585 2.03011 1.20372C2.27686 1.54928 2.52433 1.89449 2.77144 2.23988C5.78625 6.45236 8.80141 10.6645 11.8134 14.8789C11.8833 14.9766 11.9553 15.01 12.0744 15.0088C12.6765 15.003 13.2786 15.0062 13.8807 15.0062C13.9352 15.0062 13.9898 15.0062 14.0787 15.0062C13.8818 14.7305 13.7091 14.4884 13.536 14.2465C10.4208 9.89319 7.30505 5.54002 4.19161 1.18563C4.12289 1.08946 4.0579 1.03415 3.92438 1.03659C3.39171 1.04598 2.85868 1.04041 2.32582 1.04041C2.20031 1.04041 2.07462 1.04041 1.92276 1.04041Z" fill="#B6B6B6"/>
</svg>
