<svg width="39" height="135" viewBox="0 0 39 135" fill="none" xmlns="http://www.w3.org/2000/svg">
<path d="M38.7071 127.707C39.0976 127.317 39.0976 126.683 38.7071 126.293L32.3431 119.929C31.9526 119.538 31.3195 119.538 30.9289 119.929C30.5384 120.319 30.5384 120.953 30.9289 121.343L36.5858 127L30.9289 132.657C30.5384 133.047 30.5384 133.681 30.9289 134.071C31.3195 134.462 31.9526 134.462 32.3431 134.071L38.7071 127.707ZM0 2H9.37255V0H0V2ZM18.3725 11V117H20.3725V11H18.3725ZM29.3725 128H38V126H29.3725V128ZM18.3725 117C18.3725 123.075 23.2974 128 29.3725 128V126C24.402 126 20.3725 121.971 20.3725 117H18.3725ZM9.37255 2C14.3431 2 18.3725 6.02944 18.3725 11H20.3725C20.3725 4.92487 15.4477 0 9.37255 0V2Z" fill="#3C2A8C"/>
</svg>
