<svg width="50" height="135" viewBox="0 0 50 135" fill="none" xmlns="http://www.w3.org/2000/svg">
<path d="M49.7071 127.707C50.0976 127.317 50.0976 126.683 49.7071 126.293L43.3431 119.929C42.9526 119.538 42.3195 119.538 41.9289 119.929C41.5384 120.319 41.5384 120.953 41.9289 121.343L47.5858 127L41.9289 132.657C41.5384 133.047 41.5384 133.681 41.9289 134.071C42.3195 134.462 42.9526 134.462 43.3431 134.071L49.7071 127.707ZM0 2H14.9804V0H0V2ZM23.9804 11V117H25.9804V11H23.9804ZM34.9804 128H49V126H34.9804V128ZM23.9804 117C23.9804 123.075 28.9053 128 34.9804 128V126C30.0098 126 25.9804 121.971 25.9804 117H23.9804ZM14.9804 2C19.951 2 23.9804 6.02944 23.9804 11H25.9804C25.9804 4.92487 21.0555 0 14.9804 0V2Z" fill="#383856"/>
</svg>
