<svg width="44" height="36" viewBox="0 0 44 36" fill="none" xmlns="http://www.w3.org/2000/svg">
<g clip-path="url(#clip0_2201_5902)">
<path d="M12.3932 8.60373C19.0111 8.60373 24.376 6.76735 24.376 4.50206C24.376 2.23677 19.0111 0.400391 12.3932 0.400391C5.77527 0.400391 0.41037 2.23677 0.41037 4.50206C0.41037 6.76735 5.77527 8.60373 12.3932 8.60373Z" stroke="white" stroke-miterlimit="10"/>
<path d="M24.376 8.60547C24.376 10.869 19.0084 12.7071 12.3932 12.7071C5.77802 12.7071 0.41037 10.877 0.41037 8.60547" stroke="white" stroke-miterlimit="10"/>
<path d="M24.376 12.707C24.376 14.9706 19.0084 16.8087 12.3932 16.8087C5.77802 16.8087 0.41037 14.9786 0.41037 12.707" stroke="white" stroke-miterlimit="10"/>
<path d="M31.6068 27.3948C38.2247 27.3948 43.5896 25.5584 43.5896 23.2931C43.5896 21.0278 38.2247 19.1914 31.6068 19.1914C24.9889 19.1914 19.624 21.0278 19.624 23.2931C19.624 25.5584 24.9889 27.3948 31.6068 27.3948Z" stroke="white" stroke-miterlimit="10"/>
<path d="M43.5896 27.3945C43.5896 29.6581 38.222 31.4962 31.6068 31.4962C24.9916 31.4962 19.624 29.6581 19.624 27.3945" stroke="white" stroke-miterlimit="10"/>
<path d="M43.5896 31.4961C43.5896 33.7596 38.222 35.5978 31.6068 35.5978C24.9916 35.5978 19.624 33.7596 19.624 31.4961" stroke="white" stroke-miterlimit="10"/>
<path d="M34.9636 11.0199V6.47679C34.9472 5.10421 33.7982 3.98047 32.3947 3.98047H27.659" stroke="white" stroke-miterlimit="10"/>
<path d="M6.50027 24.8594V29.4025C6.51669 30.7751 7.66573 31.8988 9.0692 31.8988H13.8049" stroke="white" stroke-miterlimit="10"/>
</g>
<defs>
<clipPath id="clip0_2201_5902">
<rect width="44" height="36" fill="white"/>
</clipPath>
</defs>
</svg>
