<svg width="43" height="35" viewBox="0 0 43 35" fill="none" xmlns="http://www.w3.org/2000/svg">
<g clip-path="url(#clip0_2173_4581)">
<path d="M12.1115 8.3661C18.5791 8.3661 23.822 6.58073 23.822 4.37836C23.822 2.176 18.5791 0.390625 12.1115 0.390625C5.64401 0.390625 0.401043 2.176 0.401043 4.37836C0.401043 6.58073 5.64401 8.3661 12.1115 8.3661Z" stroke="#AEB9E1" stroke-miterlimit="10"/>
<path d="M23.822 8.36523C23.822 10.5659 18.5764 12.353 12.1115 12.353C5.64671 12.353 0.401043 10.5737 0.401043 8.36523" stroke="#AEB9E1" stroke-miterlimit="10"/>
<path d="M23.822 12.3535C23.822 14.5542 18.5764 16.3413 12.1115 16.3413C5.64671 16.3413 0.401043 14.562 0.401043 12.3535" stroke="#AEB9E1" stroke-miterlimit="10"/>
<path d="M30.8885 26.6337C37.356 26.6337 42.599 24.8483 42.599 22.6459C42.599 20.4436 37.356 18.6582 30.8885 18.6582C24.4209 18.6582 19.178 20.4436 19.178 22.6459C19.178 24.8483 24.4209 26.6337 30.8885 26.6337Z" stroke="#AEB9E1" stroke-miterlimit="10"/>
<path d="M42.599 26.6348C42.599 28.8354 37.3533 30.6225 30.8885 30.6225C24.4236 30.6225 19.178 28.8354 19.178 26.6348" stroke="#AEB9E1" stroke-miterlimit="10"/>
<path d="M42.599 30.623C42.599 32.8237 37.3533 34.6108 30.8885 34.6108C24.4236 34.6108 19.178 32.8237 19.178 30.623" stroke="#AEB9E1" stroke-miterlimit="10"/>
<path d="M34.169 10.715V6.29807C34.153 4.96362 33.03 3.87109 31.6585 3.87109H27.0304" stroke="#AEB9E1" stroke-miterlimit="10"/>
<path d="M6.35255 24.168V28.5849C6.36859 29.9194 7.49151 31.0119 8.86309 31.0119H13.4911" stroke="#AEB9E1" stroke-miterlimit="10"/>
</g>
<defs>
<clipPath id="clip0_2173_4581">
<rect width="43" height="35" fill="white"/>
</clipPath>
</defs>
</svg>
