<svg width="40" height="40" viewBox="0 0 40 40" fill="none" xmlns="http://www.w3.org/2000/svg">
<g clip-path="url(#clip0_2173_4269)">
<path d="M30.616 4.55664H8.80614C6.429 4.55664 4.50195 6.51345 4.50195 8.9273V31.074C4.50195 33.4879 6.429 35.4447 8.80614 35.4447H30.616C32.9932 35.4447 34.9202 33.4879 34.9202 31.074V8.9273C34.9202 6.51345 32.9932 4.55664 30.616 4.55664Z" stroke="#383856" stroke-miterlimit="10" stroke-linecap="round"/>
<path d="M13.1102 4.55527V0.771484" stroke="#383856" stroke-miterlimit="10" stroke-linecap="round"/>
<path d="M20.0455 4.55527V0.771484" stroke="#383856" stroke-miterlimit="10" stroke-linecap="round"/>
<path d="M26.2965 4.55527V0.771484" stroke="#383856" stroke-miterlimit="10" stroke-linecap="round"/>
<path d="M13.1102 39.2271V35.4434" stroke="#383856" stroke-miterlimit="10" stroke-linecap="round"/>
<path d="M20.0455 39.2271V35.4434" stroke="#383856" stroke-miterlimit="10" stroke-linecap="round"/>
<path d="M26.2965 39.2271V35.4434" stroke="#383856" stroke-miterlimit="10" stroke-linecap="round"/>
<path d="M39.2395 26.6875L35.5133 26.7029" stroke="#383856" stroke-miterlimit="10" stroke-linecap="round"/>
<path d="M39.2395 19.6602H35.498" stroke="#383856" stroke-miterlimit="10" stroke-linecap="round"/>
<path d="M39.2243 13.3125H35.498" stroke="#383856" stroke-miterlimit="10" stroke-linecap="round"/>
<path d="M4.50199 26.6875L0.775757 26.7029" stroke="#383856" stroke-miterlimit="10" stroke-linecap="round"/>
<path d="M4.50194 19.6602H0.760498" stroke="#383856" stroke-miterlimit="10" stroke-linecap="round"/>
<path d="M4.48673 13.3125H0.760498" stroke="#383856" stroke-miterlimit="10" stroke-linecap="round"/>
<path d="M18.9961 30.9027C18.6159 30.7946 18.2661 30.6247 18.114 30.2232C18.0228 30.0069 17.9771 29.7753 17.9771 29.5436C17.9619 28.9259 17.9771 28.3081 17.9771 27.6903C17.9771 27.5513 17.9315 27.505 17.8098 27.4432C17.2927 27.227 16.7756 27.0108 16.2737 26.7791C16.152 26.7174 16.076 26.7328 15.9847 26.8255C15.6045 27.227 15.2091 27.6131 14.8136 28.0147C14.2509 28.5861 13.5513 28.5861 12.9733 28.0147C12.6083 27.644 12.2281 27.2579 11.8631 26.8873C11.3155 26.3158 11.3155 25.6054 11.8631 25.034C12.2585 24.6324 12.6692 24.2154 13.0646 23.8139C13.1254 23.7521 13.1863 23.7212 13.2167 23.7058C13.019 23.1652 12.8365 22.6865 12.6539 22.2232C12.6235 22.1614 12.5171 22.1151 12.4562 22.1151C11.8631 22.1151 11.2851 22.1151 10.692 22.1151C9.76421 22.1151 9.29272 21.6363 9.29272 20.6942C9.29272 20.2 9.29272 19.7212 9.29272 19.227C9.29272 18.393 9.77942 17.8988 10.6007 17.8988C11.2091 17.8988 11.8174 17.8988 12.4258 17.8988C12.5779 17.8988 12.6387 17.8525 12.6996 17.7135C12.8973 17.2039 13.1102 16.6942 13.3384 16.1846C13.3992 16.0456 13.4144 15.9683 13.2927 15.8602C12.8365 15.3969 12.3802 14.9336 11.9239 14.4703C11.346 13.8679 11.346 13.173 11.9239 12.5707C12.2889 12.2 12.6539 11.8448 13.0038 11.4741C13.5817 10.9027 14.2813 10.9027 14.8593 11.4741C15.3764 11.9992 15.9087 12.5243 16.4258 13.034C16.8973 12.8486 17.384 12.6788 17.8707 12.478C17.9163 12.4625 17.9467 12.339 17.9467 12.2618C17.9467 11.644 17.9467 11.0108 17.9467 10.393C17.9467 9.75984 18.2509 9.2193 18.7984 9.15752C19.6045 9.0803 20.4258 9.0803 21.2319 9.15752C21.7186 9.20386 22.0532 9.69807 22.0684 10.2077C22.0836 10.8873 22.0836 11.5513 22.0684 12.2309C22.0684 12.4008 22.114 12.478 22.2813 12.5243C22.6768 12.6633 23.0722 12.8332 23.4676 13.0031C23.6197 13.0803 23.711 13.0649 23.8174 12.9413C24.2889 12.4625 24.7604 11.9838 25.2319 11.5205C25.825 10.9336 26.5095 10.9336 27.1026 11.5205C27.4676 11.8911 27.8174 12.2463 28.1825 12.617C28.7452 13.2039 28.7452 13.9143 28.1825 14.4857C27.7262 14.9645 27.2547 15.4278 26.7832 15.8911C26.6768 15.9838 26.692 16.061 26.7376 16.1846C26.9505 16.6788 27.1634 17.1884 27.3612 17.6826C27.422 17.8216 27.4828 17.868 27.6197 17.8525C28.152 17.8525 28.6844 17.868 29.2167 17.8525C29.9771 17.8062 30.5247 18.0842 30.7528 18.8564V21.0803C30.7528 21.0803 30.7224 21.1112 30.7224 21.1266C30.5095 21.7907 30.1292 22.0687 29.4448 22.0687C28.8365 22.0687 28.2129 22.0687 27.6045 22.0687C27.4676 22.0687 27.422 22.1151 27.3612 22.2386C27.2091 22.671 27.0266 23.1035 26.8441 23.5205C26.7832 23.644 26.8136 23.7212 26.9049 23.8139C27.3155 24.2309 27.7262 24.6479 28.1368 25.0649C28.6996 25.6517 28.6996 26.3467 28.1368 26.9336C27.7718 27.3042 27.4068 27.6595 27.057 28.0301C26.4638 28.617 25.7794 28.617 25.1863 28.0301C24.806 27.644 24.4106 27.2425 24.0304 26.8564C23.9391 26.7637 23.8631 26.7483 23.7414 26.81C23.2547 27.0417 22.7528 27.2425 22.2661 27.4432C22.1292 27.505 22.0988 27.5668 22.0988 27.7058C22.0988 28.3235 22.0988 28.9259 22.0988 29.5436C22.0988 29.8679 22.0228 30.1614 21.825 30.4239C21.6273 30.6865 21.3536 30.81 21.0494 30.9027H18.9505H18.9961ZM15.9999 26.0069C16.4106 26.2232 16.7756 26.4548 17.1558 26.6247C17.5513 26.7946 17.9619 26.9181 18.3878 27.0571C18.5247 27.1035 18.5095 27.1807 18.5095 27.2888C18.5095 28.0456 18.5095 28.8023 18.5095 29.5436C18.5095 30.0996 18.7528 30.3467 19.3003 30.3467C19.8022 30.3467 20.2889 30.3467 20.7908 30.3467C21.3231 30.3467 21.5665 30.0996 21.5665 29.5745C21.5665 28.8178 21.5665 28.061 21.5665 27.3197C21.5665 27.1344 21.6273 27.0726 21.7794 27.0417C21.9923 26.9954 22.2205 26.9336 22.4182 26.8409C22.9505 26.6093 23.4828 26.3467 24.0608 26.0842C24.0608 26.0996 24.1216 26.1614 24.1673 26.2232C24.6387 26.7174 25.1254 27.1961 25.5969 27.6903C25.9467 28.0456 26.2965 28.0456 26.6615 27.6903C27.0114 27.3351 27.3612 26.9799 27.7262 26.6247C28.1368 26.2077 28.1368 25.8679 27.7262 25.451C27.1939 24.9104 26.6463 24.3699 26.114 23.8293C26.5247 23.1344 26.8136 22.4239 27.0114 21.6672C27.0114 21.6208 27.1482 21.5591 27.2091 21.5591C27.9695 21.5591 28.7148 21.5591 29.4752 21.5591C29.9923 21.5591 30.2357 21.2965 30.2357 20.7869C30.2357 20.2618 30.2357 19.7521 30.2357 19.227C30.2357 18.7174 29.9923 18.4548 29.4752 18.4548C28.73 18.4548 27.9847 18.4548 27.2243 18.4548C27.0722 18.4548 27.0114 18.4085 26.9657 18.254C26.7984 17.5282 26.5095 16.8486 26.1292 16.2154C26.0836 16.1382 26.038 16.0456 25.9923 15.9683C26.0076 15.9374 26.0228 15.922 26.0228 15.922C26.6159 15.3197 27.2091 14.7174 27.8022 14.1151C28.152 13.7598 28.152 13.3892 27.8022 13.034C27.4372 12.6633 27.0722 12.2927 26.7072 11.922C26.3574 11.5668 25.9923 11.5668 25.6273 11.922C25.0494 12.4934 24.4866 13.0649 23.9087 13.6517C23.8631 13.6981 23.8022 13.7598 23.7414 13.8062C23.1026 13.4201 22.4486 13.1266 21.7338 12.9568C21.5665 12.9104 21.5209 12.8332 21.5209 12.6633C21.5209 11.8911 21.5209 11.1189 21.5209 10.3467C21.5209 9.91428 21.2623 9.65173 20.8365 9.63629C20.2737 9.63629 19.711 9.63629 19.133 9.63629C18.8745 9.63629 18.6615 9.7444 18.5551 9.97606C18.4942 10.1151 18.4638 10.2695 18.4638 10.4239C18.4638 11.1807 18.4638 11.9374 18.4638 12.7096C18.4638 12.7869 18.403 12.895 18.3574 12.9104C17.6425 13.1112 16.9581 13.3892 16.2737 13.7907C16.2281 13.729 16.1977 13.6517 16.1368 13.6054C15.5589 13.0185 14.9809 12.4162 14.403 11.8293C14.114 11.5359 13.749 11.505 13.4904 11.7521C13.0342 12.1846 12.6083 12.617 12.1825 13.0649C11.9543 13.312 11.9695 13.6672 12.1825 13.9143C12.2433 13.9915 12.3041 14.0533 12.365 14.1151C12.9581 14.7019 13.5361 15.2734 14.1292 15.8448C13.6425 16.617 13.2927 17.3737 13.095 18.2077C13.0646 18.3622 12.9885 18.393 12.8365 18.393C12.076 18.393 11.3307 18.393 10.5703 18.393C10.0836 18.393 9.84025 18.6556 9.82504 19.1498C9.82504 19.6595 9.82504 20.1691 9.82504 20.6788C9.82504 21.2502 10.0532 21.4973 10.6159 21.4973C11.3307 21.4973 12.0456 21.4973 12.7604 21.4973C12.9581 21.4973 13.0342 21.5436 13.1102 21.7444C13.2927 22.3004 13.5209 22.8255 13.7338 23.366C13.7794 23.4896 13.8403 23.5822 13.9163 23.7212C13.8555 23.783 13.7946 23.8293 13.7338 23.8757C13.2319 24.3853 12.73 24.8795 12.2281 25.3892C11.9239 25.6981 11.8935 26.0687 12.1672 26.3622C12.5779 26.81 13.0038 27.2425 13.4448 27.6595C13.7186 27.922 14.0836 27.8911 14.3726 27.6131C14.6768 27.3197 14.9809 27.0108 15.2851 26.7019C15.5285 26.4548 15.7718 26.1923 15.9999 25.9606V26.0069Z" fill="#383856"/>
<path d="M15.9391 19.9846C15.9391 17.6989 17.8098 15.8147 20.0456 15.8302C22.3117 15.8456 24.152 17.7298 24.1368 20.0001C24.1064 22.3012 22.2965 24.1391 20.0456 24.1391C17.7946 24.1391 15.9391 22.2549 15.9391 19.9692V19.9846ZM23.5893 19.9846C23.5893 17.9923 21.9771 16.3707 20.0303 16.3862C18.0684 16.4016 16.4714 18.0387 16.4866 20.0001C16.4866 21.9923 18.0988 23.5985 20.0456 23.5985C22.0075 23.5985 23.5893 21.9614 23.5893 19.9846Z" fill="#383856"/>
</g>
<defs>
<clipPath id="clip0_2173_4269">
<rect width="40" height="40" fill="white"/>
</clipPath>
</defs>
</svg>
