<svg width="40" height="40" viewBox="0 0 40 40" fill="none" xmlns="http://www.w3.org/2000/svg">
<g clip-path="url(#clip0_2201_5357)">
<path d="M30.616 4.55664H8.80609C6.42896 4.55664 4.50191 6.51345 4.50191 8.9273V31.074C4.50191 33.4879 6.42896 35.4447 8.80609 35.4447H30.616C32.9931 35.4447 34.9202 33.4879 34.9202 31.074V8.9273C34.9202 6.51345 32.9931 4.55664 30.616 4.55664Z" stroke="white" stroke-miterlimit="10" stroke-linecap="round"/>
<path d="M13.1103 4.55527V0.771484" stroke="white" stroke-miterlimit="10" stroke-linecap="round"/>
<path d="M20.0456 4.55527V0.771484" stroke="white" stroke-miterlimit="10" stroke-linecap="round"/>
<path d="M26.2966 4.55527V0.771484" stroke="white" stroke-miterlimit="10" stroke-linecap="round"/>
<path d="M13.1103 39.2271V35.4434" stroke="white" stroke-miterlimit="10" stroke-linecap="round"/>
<path d="M20.0456 39.2271V35.4434" stroke="white" stroke-miterlimit="10" stroke-linecap="round"/>
<path d="M26.2966 39.2271V35.4434" stroke="white" stroke-miterlimit="10" stroke-linecap="round"/>
<path d="M39.2396 26.6875L35.5133 26.7029" stroke="white" stroke-miterlimit="10" stroke-linecap="round"/>
<path d="M39.2396 19.6602H35.4981" stroke="white" stroke-miterlimit="10" stroke-linecap="round"/>
<path d="M39.2243 13.3125H35.4981" stroke="white" stroke-miterlimit="10" stroke-linecap="round"/>
<path d="M4.5019 26.6875L0.775665 26.7029" stroke="white" stroke-miterlimit="10" stroke-linecap="round"/>
<path d="M4.5019 19.6602H0.760452" stroke="white" stroke-miterlimit="10" stroke-linecap="round"/>
<path d="M4.48669 13.3125H0.760452" stroke="white" stroke-miterlimit="10" stroke-linecap="round"/>
<path d="M18.9962 30.9027C18.616 30.7946 18.2662 30.6247 18.1141 30.2232C18.0228 30.0069 17.9772 29.7753 17.9772 29.5436C17.962 28.9259 17.9772 28.3081 17.9772 27.6903C17.9772 27.5513 17.9316 27.505 17.8099 27.4432C17.2928 27.227 16.7757 27.0108 16.2738 26.7791C16.1521 26.7174 16.076 26.7328 15.9848 26.8255C15.6046 27.227 15.2091 27.6131 14.8137 28.0147C14.2509 28.5861 13.5513 28.5861 12.9734 28.0147C12.6084 27.644 12.2281 27.2579 11.8631 26.8873C11.3156 26.3158 11.3156 25.6054 11.8631 25.034C12.2586 24.6324 12.6692 24.2154 13.0646 23.8139C13.1255 23.7521 13.1863 23.7212 13.2167 23.7058C13.019 23.1652 12.8365 22.6865 12.654 22.2232C12.6236 22.1614 12.5171 22.1151 12.4563 22.1151C11.8631 22.1151 11.2852 22.1151 10.692 22.1151C9.76425 22.1151 9.29277 21.6363 9.29277 20.6942C9.29277 20.2 9.29277 19.7212 9.29277 19.227C9.29277 18.393 9.77946 17.8988 10.6008 17.8988C11.2091 17.8988 11.8175 17.8988 12.4259 17.8988C12.5779 17.8988 12.6388 17.8525 12.6996 17.7135C12.8973 17.2039 13.1103 16.6942 13.3384 16.1846C13.3992 16.0456 13.4144 15.9683 13.2928 15.8602C12.8365 15.3969 12.3802 14.9336 11.9239 14.4703C11.346 13.8679 11.346 13.173 11.9239 12.5707C12.289 12.2 12.654 11.8448 13.0038 11.4741C13.5817 10.9027 14.2814 10.9027 14.8593 11.4741C15.3764 11.9992 15.9087 12.5243 16.4259 13.034C16.8973 12.8486 17.384 12.6788 17.8707 12.478C17.9163 12.4625 17.9468 12.339 17.9468 12.2618C17.9468 11.644 17.9468 11.0108 17.9468 10.393C17.9468 9.75984 18.2509 9.2193 18.7985 9.15752C19.6046 9.0803 20.4259 9.0803 21.2319 9.15752C21.7186 9.20386 22.0532 9.69807 22.0684 10.2077C22.0836 10.8873 22.0836 11.5513 22.0684 12.2309C22.0684 12.4008 22.1141 12.478 22.2814 12.5243C22.6768 12.6633 23.0722 12.8332 23.4677 13.0031C23.6198 13.0803 23.711 13.0649 23.8175 12.9413C24.289 12.4625 24.7605 11.9838 25.2319 11.5205C25.8251 10.9336 26.5095 10.9336 27.1027 11.5205C27.4677 11.8911 27.8175 12.2463 28.1825 12.617C28.7452 13.2039 28.7452 13.9143 28.1825 14.4857C27.7262 14.9645 27.2547 15.4278 26.7833 15.8911C26.6768 15.9838 26.692 16.061 26.7376 16.1846C26.9506 16.6788 27.1635 17.1884 27.3612 17.6826C27.422 17.8216 27.4829 17.868 27.6198 17.8525C28.1521 17.8525 28.6844 17.868 29.2167 17.8525C29.9772 17.8062 30.5247 18.0842 30.7528 18.8564V21.0803C30.7528 21.0803 30.7224 21.1112 30.7224 21.1266C30.5095 21.7907 30.1293 22.0687 29.4449 22.0687C28.8365 22.0687 28.2129 22.0687 27.6046 22.0687C27.4677 22.0687 27.422 22.1151 27.3612 22.2386C27.2091 22.671 27.0266 23.1035 26.8441 23.5205C26.7833 23.644 26.8137 23.7212 26.9049 23.8139C27.3156 24.2309 27.7262 24.6479 28.1369 25.0649C28.6996 25.6517 28.6996 26.3467 28.1369 26.9336C27.7719 27.3042 27.4068 27.6595 27.057 28.0301C26.4639 28.617 25.7795 28.617 25.1863 28.0301C24.8061 27.644 24.4106 27.2425 24.0304 26.8564C23.9392 26.7637 23.8631 26.7483 23.7414 26.81C23.2547 27.0417 22.7528 27.2425 22.2662 27.4432C22.1293 27.505 22.0989 27.5668 22.0989 27.7058C22.0989 28.3235 22.0989 28.9259 22.0989 29.5436C22.0989 29.8679 22.0228 30.1614 21.8251 30.4239C21.6274 30.6865 21.3536 30.81 21.0494 30.9027H18.9506H18.9962ZM16 26.0069C16.4106 26.2232 16.7757 26.4548 17.1559 26.6247C17.5513 26.7946 17.962 26.9181 18.3878 27.0571C18.5247 27.1035 18.5095 27.1807 18.5095 27.2888C18.5095 28.0456 18.5095 28.8023 18.5095 29.5436C18.5095 30.0996 18.7528 30.3467 19.3004 30.3467C19.8023 30.3467 20.289 30.3467 20.7909 30.3467C21.3232 30.3467 21.5665 30.0996 21.5665 29.5745C21.5665 28.8178 21.5665 28.061 21.5665 27.3197C21.5665 27.1344 21.6274 27.0726 21.7795 27.0417C21.9924 26.9954 22.2205 26.9336 22.4182 26.8409C22.9506 26.6093 23.4829 26.3467 24.0608 26.0842C24.0608 26.0996 24.1217 26.1614 24.1673 26.2232C24.6388 26.7174 25.1255 27.1961 25.597 27.6903C25.9468 28.0456 26.2966 28.0456 26.6616 27.6903C27.0114 27.3351 27.3612 26.9799 27.7262 26.6247C28.1369 26.2077 28.1369 25.8679 27.7262 25.451C27.1939 24.9104 26.6464 24.3699 26.1141 23.8293C26.5247 23.1344 26.8137 22.4239 27.0114 21.6672C27.0114 21.6208 27.1483 21.5591 27.2091 21.5591C27.9696 21.5591 28.7148 21.5591 29.4753 21.5591C29.9924 21.5591 30.2357 21.2965 30.2357 20.7869C30.2357 20.2618 30.2357 19.7521 30.2357 19.227C30.2357 18.7174 29.9924 18.4548 29.4753 18.4548C28.73 18.4548 27.9848 18.4548 27.2243 18.4548C27.0722 18.4548 27.0114 18.4085 26.9658 18.254C26.7985 17.5282 26.5095 16.8486 26.1293 16.2154C26.0836 16.1382 26.038 16.0456 25.9924 15.9683C26.0076 15.9374 26.0228 15.922 26.0228 15.922C26.616 15.3197 27.2091 14.7174 27.8023 14.1151C28.1521 13.7598 28.1521 13.3892 27.8023 13.034C27.4373 12.6633 27.0722 12.2927 26.7072 11.922C26.3574 11.5668 25.9924 11.5668 25.6274 11.922C25.0494 12.4934 24.4867 13.0649 23.9087 13.6517C23.8631 13.6981 23.8023 13.7598 23.7414 13.8062C23.1027 13.4201 22.4487 13.1266 21.7338 12.9568C21.5665 12.9104 21.5209 12.8332 21.5209 12.6633C21.5209 11.8911 21.5209 11.1189 21.5209 10.3467C21.5209 9.91428 21.2624 9.65173 20.8365 9.63629C20.2738 9.63629 19.711 9.63629 19.1331 9.63629C18.8745 9.63629 18.6616 9.7444 18.5551 9.97606C18.4943 10.1151 18.4639 10.2695 18.4639 10.4239C18.4639 11.1807 18.4639 11.9374 18.4639 12.7096C18.4639 12.7869 18.403 12.895 18.3574 12.9104C17.6426 13.1112 16.9582 13.3892 16.2738 13.7907C16.2281 13.729 16.1977 13.6517 16.1369 13.6054C15.5589 13.0185 14.981 12.4162 14.403 11.8293C14.1141 11.5359 13.749 11.505 13.4905 11.7521C13.0342 12.1846 12.6084 12.617 12.1825 13.0649C11.9544 13.312 11.9696 13.6672 12.1825 13.9143C12.2433 13.9915 12.3042 14.0533 12.365 14.1151C12.9582 14.7019 13.5361 15.2734 14.1293 15.8448C13.6426 16.617 13.2928 17.3737 13.0951 18.2077C13.0646 18.3622 12.9886 18.393 12.8365 18.393C12.076 18.393 11.3308 18.393 10.5703 18.393C10.0836 18.393 9.8403 18.6556 9.82509 19.1498C9.82509 19.6595 9.82509 20.1691 9.82509 20.6788C9.82509 21.2502 10.0532 21.4973 10.616 21.4973C11.3308 21.4973 12.0456 21.4973 12.7605 21.4973C12.9582 21.4973 13.0342 21.5436 13.1103 21.7444C13.2928 22.3004 13.5209 22.8255 13.7338 23.366C13.7795 23.4896 13.8403 23.5822 13.9163 23.7212C13.8555 23.783 13.7947 23.8293 13.7338 23.8757C13.2319 24.3853 12.73 24.8795 12.2281 25.3892C11.9239 25.6981 11.8935 26.0687 12.1673 26.3622C12.5779 26.81 13.0038 27.2425 13.4449 27.6595C13.7186 27.922 14.0836 27.8911 14.3726 27.6131C14.6768 27.3197 14.981 27.0108 15.2852 26.7019C15.5285 26.4548 15.7719 26.1923 16 25.9606V26.0069Z" fill="white"/>
<path d="M15.9392 19.9846C15.9392 17.6989 17.8099 15.8147 20.0456 15.8302C22.3118 15.8456 24.1521 17.7298 24.1369 20.0001C24.1065 22.3012 22.2966 24.1391 20.0456 24.1391C17.7947 24.1391 15.9392 22.2549 15.9392 19.9692V19.9846ZM23.5894 19.9846C23.5894 17.9923 21.9772 16.3707 20.0304 16.3862C18.0684 16.4016 16.4715 18.0387 16.4867 20.0001C16.4867 21.9923 18.0989 23.5985 20.0456 23.5985C22.0076 23.5985 23.5894 21.9614 23.5894 19.9846Z" fill="white"/>
</g>
<defs>
<clipPath id="clip0_2201_5357">
<rect width="40" height="40" fill="white"/>
</clipPath>
</defs>
</svg>
