<svg width="46" height="46" viewBox="0 0 46 46" fill="none" xmlns="http://www.w3.org/2000/svg">
<g clip-path="url(#clip0_2173_4190)">
<path d="M35.2084 5.24023H10.127C7.39329 5.24023 5.17719 7.49057 5.17719 10.2665V35.7352C5.17719 38.5111 7.39329 40.7615 10.127 40.7615H35.2084C37.9421 40.7615 40.1582 38.5111 40.1582 35.7352V10.2665C40.1582 7.49057 37.9421 5.24023 35.2084 5.24023Z" stroke="white" stroke-miterlimit="10" stroke-linecap="round"/>
<path d="M15.0768 5.24002V0.888672" stroke="white" stroke-miterlimit="10" stroke-linecap="round"/>
<path d="M23.0525 5.24002V0.888672" stroke="white" stroke-miterlimit="10" stroke-linecap="round"/>
<path d="M30.2411 5.24002V0.888672" stroke="white" stroke-miterlimit="10" stroke-linecap="round"/>
<path d="M15.0768 45.1111V40.7598" stroke="white" stroke-miterlimit="10" stroke-linecap="round"/>
<path d="M23.0525 45.1111V40.7598" stroke="white" stroke-miterlimit="10" stroke-linecap="round"/>
<path d="M30.2411 45.1111V40.7598" stroke="white" stroke-miterlimit="10" stroke-linecap="round"/>
<path d="M45.1255 30.6914L40.8403 30.7092" stroke="white" stroke-miterlimit="10" stroke-linecap="round"/>
<path d="M45.1255 22.6094H40.8228" stroke="white" stroke-miterlimit="10" stroke-linecap="round"/>
<path d="M45.108 15.3105H40.8228" stroke="white" stroke-miterlimit="10" stroke-linecap="round"/>
<path d="M5.17719 30.6914L0.892014 30.7092" stroke="white" stroke-miterlimit="10" stroke-linecap="round"/>
<path d="M5.17718 22.6094H0.874523" stroke="white" stroke-miterlimit="10" stroke-linecap="round"/>
<path d="M5.15969 15.3105H0.874523" stroke="white" stroke-miterlimit="10" stroke-linecap="round"/>
<path d="M21.8456 35.5384C21.4084 35.4141 21.0061 35.2187 20.8312 34.7569C20.7262 34.5083 20.6738 34.2419 20.6738 33.9755C20.6563 33.265 20.6738 32.5546 20.6738 31.8442C20.6738 31.6843 20.6213 31.6311 20.4814 31.56C19.8867 31.3114 19.292 31.0627 18.7148 30.7963C18.5749 30.7253 18.4875 30.743 18.3825 30.8496C17.9452 31.3114 17.4905 31.7554 17.0357 32.2172C16.3886 32.8743 15.584 32.8743 14.9194 32.2172C14.4996 31.7909 14.0624 31.3469 13.6426 30.9206C13.0129 30.2635 13.0129 29.4465 13.6426 28.7894C14.0973 28.3276 14.5696 27.848 15.0243 27.3863C15.0943 27.3152 15.1643 27.2797 15.1992 27.2619C14.9719 26.6403 14.762 26.0897 14.5521 25.5569C14.5171 25.4859 14.3947 25.4326 14.3247 25.4326C13.6426 25.4326 12.9779 25.4326 12.2958 25.4326C11.2289 25.4326 10.6867 24.882 10.6867 23.7986C10.6867 23.2303 10.6867 22.6797 10.6867 22.1114C10.6867 21.1523 11.2464 20.584 12.1909 20.584C12.8905 20.584 13.5901 20.584 14.2897 20.584C14.4646 20.584 14.5346 20.5307 14.6046 20.3708C14.8319 19.7847 15.0768 19.1986 15.3392 18.6125C15.4091 18.4527 15.4266 18.3639 15.2867 18.2396C14.762 17.7067 14.2373 17.1739 13.7125 16.6411C13.0479 15.9484 13.0479 15.1492 13.7125 14.4565C14.1323 14.0303 14.5521 13.6218 14.9544 13.1955C15.619 12.5384 16.4236 12.5384 17.0882 13.1955C17.6829 13.7994 18.2951 14.4033 18.8897 14.9894C19.4319 14.7762 19.9916 14.5809 20.5513 14.35C20.6038 14.3322 20.6388 14.1901 20.6388 14.1013C20.6388 13.3909 20.6388 12.6627 20.6388 11.9523C20.6388 11.2241 20.9886 10.6025 21.6183 10.5314C22.5452 10.4426 23.4897 10.4426 24.4167 10.5314C24.9764 10.5847 25.3612 11.1531 25.3787 11.7392C25.3962 12.5206 25.3962 13.2843 25.3787 14.0658C25.3787 14.2612 25.4312 14.35 25.6236 14.4033C26.0783 14.5631 26.5331 14.7585 26.9878 14.9538C27.1627 15.0426 27.2677 15.0249 27.3901 14.8828C27.9323 14.3322 28.4745 13.7816 29.0167 13.2488C29.6989 12.5739 30.4859 12.5739 31.1681 13.2488C31.5878 13.6751 31.9901 14.0836 32.4099 14.5098C33.057 15.1847 33.057 16.0017 32.4099 16.6589C31.8852 17.2094 31.343 17.7423 30.8008 18.2751C30.6783 18.3816 30.6958 18.4704 30.7483 18.6125C30.9932 19.1809 31.238 19.767 31.4654 20.3353C31.5354 20.4952 31.6053 20.5484 31.7627 20.5307C32.3749 20.5307 32.9871 20.5484 33.5992 20.5307C34.4738 20.4774 35.1034 20.7971 35.3658 21.6851V24.2426C35.3658 24.2426 35.3308 24.2782 35.3308 24.2959C35.0859 25.0596 34.6487 25.3793 33.8616 25.3793C33.162 25.3793 32.4449 25.3793 31.7452 25.3793C31.5878 25.3793 31.5354 25.4326 31.4654 25.5747C31.2905 26.072 31.0806 26.5693 30.8707 27.0488C30.8008 27.1909 30.8357 27.2797 30.9407 27.3863C31.4129 27.8658 31.8852 28.3453 32.3574 28.8249C33.0046 29.4998 33.0046 30.299 32.3574 30.9739C31.9376 31.4002 31.5179 31.8087 31.1156 32.2349C30.4335 32.9098 29.6464 32.9098 28.9643 32.2349C28.527 31.7909 28.0722 31.3291 27.635 30.8851C27.53 30.7785 27.4426 30.7608 27.3027 30.8318C26.743 31.0982 26.1658 31.3291 25.6061 31.56C25.4487 31.6311 25.4137 31.7021 25.4137 31.8619C25.4137 32.5724 25.4137 33.265 25.4137 33.9755C25.4137 34.3484 25.3262 34.6859 25.0989 34.9878C24.8715 35.2897 24.5567 35.4318 24.2068 35.5384H21.7932H21.8456ZM18.4 29.9083C18.8722 30.1569 19.292 30.4233 19.7293 30.6187C20.184 30.8141 20.6563 30.9562 21.146 31.116C21.3034 31.1693 21.2859 31.2581 21.2859 31.3824C21.2859 32.2527 21.2859 33.123 21.2859 33.9755C21.2859 34.6148 21.5658 34.899 22.1954 34.899C22.7726 34.899 23.3323 34.899 23.9095 34.899C24.5217 34.899 24.8015 34.6148 24.8015 34.011C24.8015 33.1407 24.8015 32.2704 24.8015 31.4179C24.8015 31.2048 24.8715 31.1338 25.0464 31.0982C25.2913 31.045 25.5536 30.9739 25.781 30.8674C26.3932 30.6009 27.0053 30.299 27.67 29.9971C27.67 30.0148 27.7399 30.0859 27.7924 30.1569C28.3346 30.7253 28.8943 31.2758 29.4365 31.8442C29.8388 32.2527 30.2411 32.2527 30.6608 31.8442C31.0631 31.4357 31.4654 31.0272 31.8852 30.6187C32.3574 30.1392 32.3574 29.7484 31.8852 29.2689C31.273 28.6473 30.6433 28.0257 30.0312 27.404C30.5034 26.6048 30.8357 25.7878 31.0631 24.9175C31.0631 24.8643 31.2205 24.7932 31.2905 24.7932C32.165 24.7932 33.0221 24.7932 33.8966 24.7932C34.4913 24.7932 34.7711 24.4913 34.7711 23.9052C34.7711 23.3013 34.7711 22.7152 34.7711 22.1114C34.7711 21.5253 34.4913 21.2233 33.8966 21.2233C33.0395 21.2233 32.1825 21.2233 31.308 21.2233C31.1331 21.2233 31.0631 21.1701 31.0106 20.9924C30.8182 20.1577 30.4859 19.3762 30.0487 18.648C29.9962 18.5592 29.9437 18.4527 29.8913 18.3639C29.9087 18.3284 29.9262 18.3106 29.9262 18.3106C30.6084 17.6179 31.2905 16.9253 31.9726 16.2326C32.3749 15.8241 32.3749 15.3979 31.9726 14.9894C31.5529 14.5631 31.1331 14.1369 30.7133 13.7106C30.311 13.3021 29.8913 13.3021 29.4715 13.7106C28.8068 14.3677 28.1597 15.0249 27.4951 15.6998C27.4426 15.7531 27.3726 15.8241 27.3027 15.8774C26.5681 15.4334 25.816 15.0959 24.9939 14.9006C24.8015 14.8473 24.749 14.7585 24.749 14.5631C24.749 13.6751 24.749 12.787 24.749 11.899C24.749 11.4017 24.4517 11.0998 23.962 11.082C23.3148 11.082 22.6677 11.082 22.003 11.082C21.7057 11.082 21.4608 11.2063 21.3384 11.4728C21.2684 11.6326 21.2335 11.8102 21.2335 11.9878C21.2335 12.8581 21.2335 13.7284 21.2335 14.6164C21.2335 14.7052 21.1635 14.8295 21.111 14.8473C20.289 15.0782 19.5019 15.3979 18.7148 15.8596C18.6624 15.7886 18.6274 15.6998 18.5574 15.6465C17.8928 14.9716 17.2281 14.2789 16.5635 13.604C16.2312 13.2666 15.8114 13.2311 15.5141 13.5152C14.9894 14.0125 14.4996 14.5098 14.0099 15.0249C13.7475 15.3091 13.765 15.7175 14.0099 16.0017C14.0798 16.0905 14.1498 16.1616 14.2198 16.2326C14.9019 16.9075 15.5665 17.5647 16.2487 18.2218C15.689 19.1098 15.2867 19.9801 15.0593 20.9392C15.0243 21.1168 14.9369 21.1523 14.762 21.1523C13.8875 21.1523 13.0304 21.1523 12.1559 21.1523C11.5962 21.1523 11.3163 21.4542 11.2989 22.0226C11.2989 22.6087 11.2989 23.1948 11.2989 23.7809C11.2989 24.438 11.5612 24.7222 12.2084 24.7222C13.0304 24.7222 13.8525 24.7222 14.6745 24.7222C14.9019 24.7222 14.9894 24.7755 15.0768 25.0063C15.2867 25.6457 15.549 26.2496 15.7939 26.8712C15.8464 27.0133 15.9163 27.1199 16.0038 27.2797C15.9338 27.3508 15.8639 27.404 15.7939 27.4573C15.2167 28.0434 14.6395 28.6118 14.0624 29.1979C13.7125 29.5531 13.6776 29.9793 13.9924 30.3168C14.4646 30.8318 14.9544 31.3291 15.4616 31.8087C15.7764 32.1106 16.1962 32.0751 16.5285 31.7554C16.8783 31.4179 17.2281 31.0627 17.5779 30.7075C17.8578 30.4233 18.1376 30.1214 18.4 29.855V29.9083Z" fill="white"/>
<path d="M18.33 22.9808C18.33 20.3523 20.4814 18.1855 23.0525 18.2032C25.6586 18.221 27.7749 20.3878 27.7574 22.9986C27.7224 25.6449 25.6411 27.7584 23.0525 27.7584C20.4639 27.7584 18.33 25.5917 18.33 22.9631V22.9808ZM27.1278 22.9808C27.1278 20.6897 25.2738 18.8249 23.035 18.8426C20.7787 18.8604 18.9422 20.743 18.9597 22.9986C18.9597 25.2897 20.8137 27.1368 23.0525 27.1368C25.3087 27.1368 27.1278 25.2542 27.1278 22.9808Z" fill="white"/>
</g>
<defs>
<clipPath id="clip0_2173_4190">
<rect width="46" height="46" fill="white"/>
</clipPath>
</defs>
</svg>
