<svg width="65" height="68" viewBox="0 0 65 68" fill="none" xmlns="http://www.w3.org/2000/svg">
<ellipse cx="32.4913" cy="32.2454" rx="32.4913" ry="32.2454" fill="white" fill-opacity="0.26"/>
<g clip-path="url(#clip0_2240_3942)">
<path d="M39.3914 45.0009H47.51C47.7047 45.0096 47.891 45.0268 48.0857 45.0268C48.2804 45.0268 48.4667 45.0096 48.6614 45.0009H48.7122C53.6649 44.6646 57.5847 40.4822 57.5847 35.3512C57.5847 30.2203 53.5887 25.9516 48.5598 25.7016C47.5439 17.6558 40.8048 11.4297 32.635 11.4297C25.2102 11.4297 18.9791 16.5693 17.1335 23.5371C11.6982 23.9855 7.42285 28.6077 7.42285 34.2647C7.42285 39.9217 11.7575 44.6042 17.252 44.9923L17.4214 45.0009C17.6161 45.0096 17.8023 45.0268 17.9971 45.0268C18.1918 45.0268 18.378 45.0096 18.5728 45.0009" stroke="white" stroke-miterlimit="10" stroke-linecap="round"/>
</g>
<path d="M29.6761 53.0572L30.8721 53.0832V56.4632H29.6761V53.0572ZM29.7801 52.8232V36.2872L30.7681 36.1572V52.8752L29.7801 52.8232ZM29.6761 32.5952H30.8721V36.0792L29.6761 36.2092V32.5952ZM35.4221 38.7832C35.1794 38.4885 34.8761 38.2285 34.5121 38.0032C34.1654 37.7605 33.7754 37.5525 33.3421 37.3792C32.9261 37.2058 32.4668 37.0672 31.9641 36.9632C31.4614 36.8592 30.9328 36.8072 30.3781 36.8072C28.7661 36.8072 27.5788 37.1192 26.8161 37.7432C26.0708 38.3498 25.6981 39.1818 25.6981 40.2392C25.6981 40.9672 25.8801 41.5392 26.2441 41.9552C26.6081 42.3712 27.1628 42.7092 27.9081 42.9692C28.6708 43.2292 29.6501 43.4978 30.8461 43.7752C32.1461 44.0525 33.2728 44.3818 34.2261 44.7632C35.1968 45.1445 35.9334 45.6645 36.4361 46.3232C36.9561 46.9645 37.2161 47.8398 37.2161 48.9492C37.2161 49.7985 37.0514 50.5352 36.7221 51.1592C36.4101 51.7832 35.9508 52.3032 35.3441 52.7192C34.7548 53.1352 34.0528 53.4472 33.2381 53.6552C32.4234 53.8458 31.5308 53.9412 30.5601 53.9412C29.6241 53.9412 28.7141 53.8458 27.8301 53.6552C26.9461 53.4472 26.1141 53.1525 25.3341 52.7712C24.5714 52.3725 23.8434 51.8698 23.1501 51.2632L24.0601 49.7812C24.3894 50.1278 24.7794 50.4572 25.2301 50.7692C25.6981 51.0638 26.2094 51.3325 26.7641 51.5752C27.3361 51.8178 27.9428 52.0085 28.5841 52.1472C29.2428 52.2685 29.9188 52.3292 30.6121 52.3292C32.0854 52.3292 33.2294 52.0605 34.0441 51.5232C34.8761 50.9858 35.2921 50.1885 35.2921 49.1312C35.2921 48.3685 35.0841 47.7618 34.6681 47.3112C34.2694 46.8432 33.6541 46.4618 32.8221 46.1672C31.9901 45.8725 30.9588 45.5865 29.7281 45.3092C28.4454 45.0145 27.3621 44.6852 26.4781 44.3212C25.6114 43.9572 24.9528 43.4805 24.5021 42.8912C24.0514 42.2845 23.8261 41.4872 23.8261 40.4992C23.8261 39.3552 24.1034 38.3932 24.6581 37.6132C25.2301 36.8158 26.0101 36.2178 26.9981 35.8192C28.0034 35.4032 29.1388 35.1952 30.4041 35.1952C31.2188 35.1952 31.9728 35.2818 32.6661 35.4552C33.3768 35.6112 34.0268 35.8452 34.6161 36.1572C35.2228 36.4692 35.7861 36.8592 36.3061 37.3272L35.4221 38.7832Z" fill="white"/>
<defs>
<clipPath id="clip0_2240_3942">
<rect width="51" height="34.4595" fill="white" transform="translate(7 11)"/>
</clipPath>
</defs>
</svg>
