<svg width="38" height="38" viewBox="0 0 38 38" fill="none" xmlns="http://www.w3.org/2000/svg">
<path d="M15.7168 27.5044C15.7168 22.8912 15.7168 18.3198 15.7168 13.737C17.2368 13.737 18.7492 13.737 20.292 13.737C20.292 14.3564 20.292 14.972 20.292 15.637C20.3528 15.5648 20.3832 15.5344 20.406 15.5002C21.337 14.0942 22.6594 13.4178 24.3314 13.3988C25.46 13.3874 26.5202 13.623 27.4588 14.2766C28.4088 14.9378 28.9826 15.8612 29.3284 16.948C29.583 17.7574 29.6894 18.5896 29.6932 19.437C29.697 22.0666 29.6932 24.6924 29.6932 27.322C29.6932 27.379 29.6856 27.4322 29.6818 27.5006C28.1618 27.5006 26.6532 27.5006 25.1104 27.5006C25.1104 27.4018 25.1104 27.3106 25.1104 27.2156C25.1104 24.8672 25.1142 22.5188 25.1104 20.1666C25.1104 19.4788 25.0458 18.7986 24.738 18.1678C24.3998 17.48 23.845 17.1114 23.085 17.0278C21.394 16.8378 20.273 18.2894 20.2882 19.5966C20.3148 21.4814 20.292 23.37 20.292 25.2586C20.292 25.9426 20.2882 26.6266 20.2958 27.3106C20.2958 27.4664 20.2502 27.512 20.0944 27.512C18.7074 27.5082 17.3204 27.512 15.9334 27.512C15.8574 27.5158 15.7852 27.5082 15.7168 27.5044Z" fill="#B6B6B6"/>
<path d="M8.59961 13.7285C10.1234 13.7285 11.6282 13.7285 13.152 13.7285C13.152 18.3189 13.152 22.9055 13.152 27.5035C11.632 27.5035 10.1234 27.5035 8.59961 27.5035C8.59961 22.9131 8.59961 18.3341 8.59961 13.7285Z" fill="#B6B6B6"/>
<path d="M10.8868 11.8707C10.0356 11.8403 9.30224 11.5819 8.77404 10.8865C7.89624 9.73507 8.20404 7.59187 10.2256 7.15487C10.9096 7.00667 11.5898 7.05227 12.2206 7.37907C13.1022 7.83507 13.5772 8.77747 13.4556 9.78827C13.3378 10.7535 12.6576 11.5097 11.6734 11.7529C11.415 11.8099 11.149 11.8327 10.8868 11.8707Z" fill="#B6B6B6"/>
</svg>
