<svg width="22" height="22" viewBox="0 0 22 22" fill="none" xmlns="http://www.w3.org/2000/svg">
<g clip-path="url(#clip0_2231_2298)">
<path d="M0.0115054 22.0001C0.53243 21.4006 1.04993 20.7983 1.57452 20.2019C3.86263 17.6018 6.15269 15.0035 8.44177 12.4041C8.48926 12.3501 8.53381 12.2937 8.58791 12.2286C5.72992 8.16537 2.8739 4.10474 0 0.0189983C0.0822512 0.0130201 0.136351 0.00560716 0.190206 0.00560716C2.24967 0.0051289 4.30913 0.00704193 6.36835 0.00130286C6.51474 0.000824602 6.58842 0.0543892 6.66578 0.164627C8.47139 2.73764 10.2807 5.30803 12.0895 7.87889C12.1343 7.9425 12.1813 8.00419 12.2415 8.08621C12.6168 7.66128 12.979 7.25166 13.3404 6.84132C15.2853 4.63273 17.2319 2.42534 19.1709 0.211974C19.309 0.0543892 19.4468 -0.00515359 19.6553 0.000346347C20.187 0.0142158 20.7195 0.00488978 21.3036 0.00488978C18.5506 3.13125 15.8302 6.22078 13.1054 9.31485C13.1524 9.38492 13.191 9.4447 13.2319 9.50305C16.1144 13.6017 18.9969 17.7001 21.8788 21.7992C21.9236 21.8631 21.9596 21.9329 21.9998 22.0001H15.4471C15.4214 21.9573 15.3984 21.9126 15.3697 21.8719C13.4339 19.1184 11.4975 16.3651 9.56073 13.6122C9.5289 13.567 9.48973 13.5271 9.44567 13.475C9.37737 13.5505 9.31862 13.6139 9.26159 13.6787C7.6993 15.4525 6.13628 17.2259 4.57522 19.001C3.69714 19.9993 2.82225 21.0003 1.94612 22.0003H0.0115054V22.0001ZM2.64379 1.43057C2.70719 1.52742 2.74709 1.59294 2.7914 1.65511C3.13069 2.13026 3.47095 2.60493 3.81073 3.07983C7.95609 8.87199 12.1019 14.6637 16.2434 20.4584C16.3396 20.5928 16.4385 20.6388 16.6023 20.6371C17.4302 20.6292 18.2581 20.6335 19.086 20.6335C19.1609 20.6335 19.236 20.6335 19.3582 20.6335C19.0874 20.2545 18.85 19.9216 18.612 19.589C14.3286 13.6031 10.0444 7.61752 5.76346 1.63024C5.66897 1.498 5.57962 1.42196 5.39602 1.42531C4.6636 1.43822 3.93068 1.43057 3.19801 1.43057C3.02543 1.43057 2.8526 1.43057 2.64379 1.43057Z" fill="#B6B6B6"/>
</g>
<defs>
<clipPath id="clip0_2231_2298">
<rect width="22" height="22" fill="white"/>
</clipPath>
</defs>
</svg>
