<svg width="65" height="65" viewBox="0 0 65 65" fill="none" xmlns="http://www.w3.org/2000/svg">
<ellipse cx="32.4913" cy="32.2454" rx="32.4913" ry="32.2454" fill="white" fill-opacity="0.26"/>
<path d="M50.3125 38.2177C50.3125 42.9504 48.4358 47.4893 45.0953 50.8359C41.7548 54.1824 37.2242 56.0625 32.5 56.0625C27.7758 56.0625 23.2452 54.1824 19.9047 50.8359C16.5642 47.4893 14.6875 42.9504 14.6875 38.2177V17.3987L32.5 12.9375L50.3125 17.3987V38.2177Z" stroke="white" stroke-miterlimit="10" stroke-linecap="square"/>
<path d="M33 40.125C34.1046 40.125 35 39.2855 35 38.25C35 37.2145 34.1046 36.375 33 36.375C31.8954 36.375 31 37.2145 31 38.25C31 39.2855 31.8954 40.125 33 40.125Z" stroke="white" stroke-miterlimit="10" stroke-linecap="square"/>
<path d="M41 32.625H25V43.875H41V32.625Z" stroke="white" stroke-miterlimit="10" stroke-linecap="square"/>
<path d="M27.8125 32.625V26.7321C27.8125 25.56 28.3064 24.4358 29.1854 23.607C30.0645 22.7781 31.2568 22.3125 32.5 22.3125C33.7432 22.3125 34.9355 22.7781 35.8146 23.607C36.6936 24.4358 37.1875 25.56 37.1875 26.7321V32.625" stroke="white" stroke-miterlimit="10" stroke-linecap="square"/>
</svg>
